<svg id="Capa_1" enable-background="new 0 0 64 64" height="512" viewBox="0 0 64 64" width="512" xmlns="http://www.w3.org/2000/svg"><g clip-rule="evenodd" fill-rule="evenodd"><path d="m48 64h-32c-8.836 0-16-7.164-16-16v-32c0-8.836 7.164-16 16-16h32c8.837 0 16 7.163 16 16v32c0 8.837-7.163 16-16 16" fill="#0050ff"/><path d="m30 18h18c4.971 0 9-4.03 9-9.001 0-4.614-3.49-8.481-8.08-8.953-.306-.017-.609-.046-.92-.046h-32c-8.836 0-16 7.164-16 16v32c0-16.568 13.432-30 30-30" fill="#2373ff"/><path d="m48 32c-8.837 0-16 7.163-16 16s7.163 16 16 16 16-7.163 16-16v-32c0 8.837-7.163 16-16 16" fill="#002ddc"/></g><path d="m22 41c2 0 5.493 0 5.493-3.364 0-2.189-1.493-3.636-5.493-3.636h-4v7zm0-11.013c3.616 0 4.635-1.509 4.635-3.497s-.635-3.49-4.635-3.49h-4v7zm0-11.987c6 0 10 2 10 7.42.241 2.668-1.341 5.166-3.856 6.088 3.178.669 4.9 3.884 4.9 6.367 0 7.765-7.044 8.125-11.044 8.125h-8c-1.104 0-2-.895-2-1.999v-.001-24c0-1.104.895-2 1.999-2h.001z" fill="#fff"/><path d="m44.327 30c-2.295-.078-4.225 1.706-4.327 4h8.537c.046-2.169-1.675-3.964-3.844-4.009-.122-.003-.244 0-.366.009zm.492 12c1.333.144 2.645-.418 3.461-1.481.136-.286.425-.469.742-.469.835-.05 2.566-.05 3.75-.05.552 0 1 .447 1 1 0 .115-.02.229-.058.337-1.573 3.368-4.999 5.477-8.714 5.365-5.497 0-10.237-3.455-10.237-10.758 0-4.973 3.678-9.944 9.564-9.944 6.862 0 9.824 5.325 9.726 10.606-.016.539-.457.968-.996.968-3.142.004-13.057.004-13.057.004.016 2.466 2.028 4.452 4.494 4.436.108-.001.217-.005.325-.014z" fill="#fff"/><path d="m39 20h11c.552 0 1 .448 1 1v1c0 .552-.448 1-1 1h-11c-.552 0-1-.448-1-1v-1c0-.552.448-1 1-1z" fill="#fff"/></svg>