<svg id="Layer_1" enable-background="new 0 0 512 512" height="512" viewBox="0 0 512 512" width="512" xmlns="http://www.w3.org/2000/svg"><g><path clip-rule="evenodd" d="m256 512-191.914-96.146-48.086-415.854h480l-48.094 415.854z" fill="#29a5d1" fill-rule="evenodd"/><path clip-rule="evenodd" d="m256 0v512l191.906-96.146 48.094-415.854z" fill="#208db8" fill-rule="evenodd"/><path d="m177.967 287.962 5.439 44.901 72.594 36.731 73.039-36.731 8.628-76.648h-227.753l-5.901-50.33 151.987-78h-161.06l-7.26-63.947h336.64l-5.892 52.604-147.454 75.281h138.373l-20.866 182.754-132.481 66.212-132.48-66.212-9.98-86.615z" fill="#fff"/><path clip-rule="evenodd" d="m270.974 191.823 147.454-75.281 5.892-52.604h-168.32v63.947 128.33h81.667l-8.628 76.648-73.039 36.731v71.195l132.481-66.212 20.866-182.754z" fill="#d8d9d9" fill-rule="evenodd"/></g></svg>