<svg xmlns="http://www.w3.org/2000/svg" viewBox="0 0 24 24" id="flutter">
  <path fill="#42A5F5" fill-opacity=".8" d="m6 15.695-3.696-3.696L14.305 0h7.391L6 15.695zm15.695-4.622h-7.391l-2.768 2.768 3.696 3.696 6.463-6.464z"></path>
  <path fill="#0D47A1" d="M11.536 21.232 14.305 24h7.391l-6.463-6.463-3.697 3.695z"></path>
  <path fill="#42A5F5" d="m7.849 17.539 3.69-3.691 3.69 3.69-3.69 3.691-3.69-3.69z"></path>
  <linearGradient id="a" x1="-2075.633" x2="-2075.633" y1="-1590.528" y2="-1590.518" gradientTransform="matrix(380.4042 -380.4175 53.104 53.1021 874056.25 -705127.375)" gradientUnits="userSpaceOnUse">
    <stop offset=".2" stop-opacity=".15"></stop>
    <stop offset=".85" stop-color="#616161" stop-opacity=".01"></stop>
  </linearGradient>
  <path fill="url(#a)" d="m11.539 21.229 3.69-3.69.515.515-3.69 3.69-.515-.515z"></path>
  <linearGradient id="b" x1="-2078.999" x2="-2078.99" y1="-1580.155" y2="-1580.155" gradientTransform="matrix(565.291 0 0 380.9571 1175251.25 601990.813)" gradientUnits="userSpaceOnUse">
    <stop offset=".2" stop-opacity=".55"></stop>
    <stop offset=".85" stop-color="#616161" stop-opacity=".01"></stop>
  </linearGradient>
  <path fill="url(#b)" d="m11.536 21.232 5.483-1.894-1.788-1.801-3.695 3.695z"></path>
</svg>
