<svg height="512" viewBox="0 0 128 128" width="512" xmlns="http://www.w3.org/2000/svg"><g><circle cx="64" cy="64" fill="#a4def7" r="48"/><path d="m30.614 98.471a47.958 47.958 0 0 0 66.772 0c-8.424-5.271-20.263-8.561-33.386-8.561s-24.962 3.29-33.386 8.561z" fill="#e1f7ff"/><path d="m30.614 29.529c8.424 5.271 20.263 8.561 33.386 8.561s24.962-3.29 33.386-8.561a47.958 47.958 0 0 0 -66.772 0z" fill="#e1f7ff"/><ellipse cx="64" cy="64" fill="#59b7e8" rx="17.043" ry="48"/><path d="m49.964 36.784a74.744 74.744 0 0 0 14.036 1.306 74.744 74.744 0 0 0 14.036-1.306c-3.074-12.552-8.212-20.784-14.036-20.784s-10.963 8.232-14.036 20.784z" fill="#a4def7"/><path d="m78.036 91.216a76.078 76.078 0 0 0 -28.072 0c3.073 12.552 8.212 20.784 14.036 20.784s10.962-8.232 14.036-20.784z" fill="#a4def7"/><path d="m4 50.168h120v27.663h-120z" fill="#0081d0"/><path d="m92.615 50.168h31.385v27.663h-31.385z" fill="#59b7e8"/><g fill="#e1f7ff"><path d="m29.453 71.75a1.751 1.751 0 0 1 -1.628-1.109l-3.092-7.861-3.091 7.861a1.751 1.751 0 0 1 -3.318-.18l-3.279-12a1.75 1.75 0 0 1 3.377-.922l1.89 6.919 2.792-7.1a1.751 1.751 0 0 1 3.258 0l2.792 7.1 1.891-6.919a1.75 1.75 0 0 1 3.377.922l-3.279 12a1.752 1.752 0 0 1 -1.594 1.287z"/><path d="m53.027 71.75a1.751 1.751 0 0 1 -1.627-1.109l-3.092-7.861-3.092 7.861a1.77 1.77 0 0 1 -1.724 1.107 1.752 1.752 0 0 1 -1.592-1.287l-3.279-12a1.75 1.75 0 0 1 3.379-.922l1.891 6.919 2.792-7.1a1.75 1.75 0 0 1 3.257 0l2.792 7.1 1.891-6.919a1.75 1.75 0 0 1 3.377.922l-3.279 12a1.751 1.751 0 0 1 -1.594 1.287z"/><path d="m76.6 71.75a1.75 1.75 0 0 1 -1.628-1.109l-3.09-7.861-3.092 7.861a1.776 1.776 0 0 1 -1.724 1.107 1.75 1.75 0 0 1 -1.593-1.287l-3.28-12a1.75 1.75 0 0 1 3.377-.922l1.891 6.919 2.792-7.1a1.751 1.751 0 0 1 3.258 0l2.792 7.1 1.89-6.919a1.75 1.75 0 0 1 3.377.922l-3.279 12a1.751 1.751 0 0 1 -1.591 1.287z"/></g><path d="m117 70.35-4.274-4.274a7.347 7.347 0 1 0 -2.475 2.475l4.274 4.274a1.75 1.75 0 1 0 2.475-2.475zm-14.352-8.056a3.821 3.821 0 1 1 3.821 3.821 3.826 3.826 0 0 1 -3.821-3.821z" fill="#ffcc5b"/></g></svg>